PathFileType	4	(X/Y/Z)	./resultDataOpenSim/trcMotMarkerGrf/sub10/qtm-03-06.trc
DataRate	CameraRate	NumFrames	NumMarkers	Units	OrigDataRate	OrigDataStartFrame	OrigNumFrames
250.000000	250.000000	9	24	m	250.000000	253	504
Frame#	Time	L.Toe.Tip			R.Toe.Tip			L.Ankle.Lat			R.Ankle.Lat			L.Ankle.Med			R.Ankle.Med			L.Heel			R.Heel			L.Knee.Lat			R.Knee.Lat			L.Knee.Med			R.Knee.Med			L.Thigh.Upper			R.Thigh.Upper			L.ASIS			R.ASIS			V.Sacral			L.Acromium			R.Acromium			C7			L.Elbow			R.Elbow			L.Wrist.Lat			R.Wrist.Lat
		X1	Y1	Z1	X2	Y2	Z2	X3	Y3	Z3	X4	Y4	Z4	X5	Y5	Z5	X6	Y6	Z6	X7	Y7	Z7	X8	Y8	Z8	X9	Y9	Z9	X10	Y10	Z10	X11	Y11	Z11	X12	Y12	Z12	X13	Y13	Z13	X14	Y14	Z14	X15	Y15	Z15	X16	Y16	Z16	X17	Y17	Z17	X18	Y18	Z18	X19	Y19	Z19	X20	Y20	Z20	X21	Y21	Z21	X22	Y22	Z22	X23	Y23	Z23	X24	Y24	Z24

253	1.008	-0.0015779318	-0.0081535741	-0.13714012	0.14341792	0.08071157	0.042853032	-0.13124996	0.028538393	-0.18596462	0.018255537	0.14904939	0.025848736	-0.13662775	0.053553147	-0.10410895	0.07615618	0.15702688	-0.042085856	-0.20203034	0.0051499339	-0.14943996	-0.017039889	0.13427569	-0.036022999	-0.050740052	0.41036951	-0.21526762	0.1971656	0.48976484	0.076911817	-0.063946223	0.38900253	-0.092750672	0.24909127	0.50256551	-0.04366374	0.0077050195	0.80399681	-0.26812252	-0.014183193	0.83057532	0.111762	0.065694469	0.91141684	-0.20073069	0.054330187	0.92418784	0.040014248	-0.1392591	0.93549287	-0.080752116	0.013679788	1.3870044	-0.24275818	-0.032559541	1.391409	0.078336774	-0.0910673	1.414575	-0.10247297	0.0012796821	1.0415561	-0.32576332	-0.11992445	1.0529959	0.10708954	0.21374187	0.91051741	-0.30906238	-0.022303156	0.84117151	0.17974651
254	1.012	-0.001606726	-0.0081310751	-0.13725654	0.16460292	0.08016258	0.044637654	-0.13146815	0.028780442	-0.1855812	0.037180985	0.14426555	0.026954178	-0.13634623	0.053853856	-0.10391312	0.094912744	0.15376063	-0.041012713	-0.2022137	0.0056201014	-0.14878366	0.0028704729	0.12794194	-0.035233433	-0.051280715	0.41059404	-0.21499266	0.20590566	0.49150616	0.07706972	-0.063465933	0.38910994	-0.092918491	0.25685648	0.50498445	-0.043458764	0.010289595	0.80388691	-0.26816907	-0.0077374876	0.83108714	0.11202824	0.069546766	0.91125817	-0.20146833	0.060168951	0.9242696	0.039837599	-0.13489653	0.93565113	-0.078237093	0.018791022	1.3869923	-0.24269611	-0.026469446	1.3909865	0.078580119	-0.085429042	1.4145595	-0.10194017	0.0090417989	1.041238	-0.32526956	-0.11731378	1.0534482	0.10728052	0.2233998	0.91327087	-0.30644579	-0.020990407	0.84125469	0.18117748
255	1.016	-0.0017628867	-0.0081307559	-0.13724507	0.18581616	0.07975147	0.046387577	-0.13175935	0.029031479	-0.18502271	0.056260085	0.13954837	0.028051515	-0.13595559	0.054122695	-0.10368033	0.11376306	0.15049855	-0.039815788	-0.20237516	0.0060367034	-0.14807621	0.022801079	0.12184359	-0.03436347	-0.052023275	0.4106584	-0.21442869	0.21449297	0.49306849	0.077240013	-0.063012088	0.3891798	-0.092974128	0.26443152	0.50717164	-0.043250494	0.01287014	0.80374036	-0.26814815	-0.00081724879	0.83168324	0.11253244	0.073402882	0.91105969	-0.20215598	0.066000471	0.92427837	0.039684586	-0.13015788	0.93540987	-0.076398095	0.023901247	1.38689	-0.24262018	-0.020374996	1.3904836	0.078828306	-0.079808819	1.4144385	-0.10137198	0.016935932	1.0409134	-0.32492517	-0.11490006	1.0538889	0.10764327	0.23294657	0.91595646	-0.30383189	-0.019570503	0.84133072	0.18264426
256	1.02	-0.0020049472	-0.0081310915	-0.13715855	0.2069716	0.079505785	0.048123341	-0.13210251	0.029295209	-0.18433584	0.075441065	0.13491105	0.029160694	-0.13560277	0.054387191	-0.10332527	0.13272517	0.14730899	-0.038567358	-0.20252287	0.0063876143	-0.14730411	0.042823485	0.11595182	-0.033448785	-0.052595427	0.41066563	-0.21386184	0.2229246	0.4944368	0.077412901	-0.062566787	0.38920935	-0.092844771	0.27181859	0.50911533	-0.043035144	0.015502105	0.80355572	-0.26804461	0.0064844809	0.83233078	0.11323248	0.077192495	0.91079813	-0.20282433	0.071839512	0.92421424	0.039547558	-0.12516659	0.9349824	-0.074804836	0.029005059	1.3867009	-0.24253097	-0.014286018	1.3899036	0.079090196	-0.074189785	1.4142068	-0.10079398	0.024957271	1.040639	-0.32463258	-0.11248337	1.0543057	0.10806916	0.2423978	0.9185771	-0.30120889	-0.01816275	0.84136596	0.18406207
257	1.024	-0.0022467354	-0.0081178983	-0.13709035	0.22800889	0.079437207	0.049850627	-0.13244395	0.029563715	-0.1836501	0.094696948	0.13036442	0.030351419	-0.13537712	0.054655592	-0.10278592	0.15179984	0.14428747	-0.037298859	-0.20267419	0.0066912148	-0.14645281	0.062976666	0.11021795	-0.032450211	-0.052797075	0.41070223	-0.21348115	0.23120991	0.49560335	0.07759457	-0.062094914	0.38919395	-0.092496767	0.27902962	0.51080105	-0.042810002	0.018196653	0.8032925	-0.26790939	0.013816235	0.83290708	0.11395749	0.080826847	0.91043408	-0.20351329	0.077689076	0.92407417	0.039420558	-0.12022789	0.93455948	-0.07310158	0.034100113	1.3864188	-0.24242879	-0.0082045682	1.3892422	0.079362047	-0.068536358	1.4138638	-0.10025986	0.03296155	1.0404121	-0.32408792	-0.10992559	1.0547146	0.10850813	0.25176869	0.92113852	-0.29856557	-0.016871519	0.84133354	0.18535998
258	1.028	-0.0024549499	-0.0080964855	-0.13707087	0.24893711	0.079524493	0.051543313	-0.13275478	0.029818008	-0.18302884	0.11402987	0.12592946	0.031695948	-0.13525344	0.054913303	-0.10208104	0.17094017	0.14148919	-0.036007369	-0.20284018	0.0069698711	-0.14551219	0.083207865	0.10464339	-0.031291201	-0.052679425	0.4107598	-0.21325203	0.23934893	0.49656098	0.077799712	-0.061533483	0.38913418	-0.091993	0.28607829	0.51221591	-0.042571544	0.020867037	0.80286961	-0.26774289	0.020974379	0.83334011	0.11460899	0.084287579	0.90994226	-0.2042305	0.083539714	0.92385638	0.039296231	-0.11543006	0.93416841	-0.071243626	0.039197844	1.386035	-0.24231241	-0.0021287894	1.3884916	0.079629422	-0.062835376	1.4134147	-0.099804851	0.04088273	1.0401642	-0.3232223	-0.10722256	1.0551345	0.10894278	0.26106892	0.92364228	-0.29589757	-0.015681082	0.84123619	0.18654156
259	1.032	-0.0026461644	-0.0080732366	-0.13707691	0.26980235	0.079730215	0.053157671	-0.13307676	0.030035495	-0.18241235	0.1334643	0.12163535	0.033173768	-0.13513557	0.055138633	-0.10128903	0.19007076	0.13891854	-0.034687156	-0.20303368	0.0072355696	-0.14448071	0.10344905	0.099274919	-0.029959415	-0.052357078	0.41078984	-0.21305618	0.24732818	0.4972981	0.0780378	-0.060800605	0.38903436	-0.091456285	0.29296868	0.5133503	-0.042316533	0.023412225	0.8022351	-0.26743772	0.027987014	0.83363165	0.11520007	0.087731798	0.9093576	-0.20489542	0.089382587	0.9235666	0.039165752	-0.11070252	0.93374425	-0.069340639	0.044321583	1.3855446	-0.24218501	0.0039425498	1.3876492	0.079880978	-0.057129292	1.4128753	-0.099378188	0.048762558	1.0397782	-0.32227478	-0.10451163	1.0555342	0.10932855	0.27029856	0.92608542	-0.29320535	-0.014520286	0.84109077	0.18765481
260	1.036	-0.0028441295	-0.0080485657	-0.13707838	0.29062627	0.080029845	0.054654564	-0.13348711	0.030204567	-0.18172517	0.15303873	0.11749168	0.03467663	-0.13493939	0.055323024	-0.10047335	0.20912492	0.13655185	-0.033341581	-0.20327893	0.0074990658	-0.14337729	0.12368379	0.094157107	-0.028513435	-0.051887217	0.41075892	-0.21281478	0.25514349	0.49780434	0.07831475	-0.059844264	0.38889516	-0.090961181	0.29969802	0.51419794	-0.042043721	0.025873121	0.80145646	-0.26693792	0.034938869	0.8338038	0.11576187	0.091402743	0.90875592	-0.20538517	0.095223381	0.92321711	0.039022399	-0.1059527	0.93323277	-0.067499357	0.049489621	1.3849495	-0.24205552	0.010006272	1.3867186	0.08012165	-0.051484096	1.4122664	-0.09887298	0.056638396	1.0391831	-0.32146233	-0.10190066	1.0558345	0.10962616	0.27945012	0.92846516	-0.29049394	-0.013354533	0.8409083	0.18873963
261	1.04	-0.0030606392	-0.0080233431	-0.13705434	0.31138587	0.080419911	0.056008035	-0.13401112	0.030328026	-0.18096512	0.17276742	0.11348667	0.036137225	-0.13465148	0.055468698	-0.099659479	0.22805693	0.13435471	-0.031973614	-0.203596	0.0077744649	-0.14223587	0.14392	0.089315104	-0.027014694	-0.05127371	0.41065586	-0.21250242	0.262809	0.49806989	0.078637932	-0.058657879	0.38871261	-0.090495976	0.30627328	0.51475361	-0.041751032	0.028445511	0.80068686	-0.26639867	0.041935027	0.83389128	0.11632752	0.095363833	0.90816299	-0.20567333	0.10108208	0.92281447	0.03886293	-0.10113975	0.93262482	-0.065758671	0.054700465	1.3842598	-0.24192556	0.016057193	1.3857058	0.080367866	-0.04590484	1.4115976	-0.098272299	0.06451839	1.0384248	-0.32081462	-0.09928725	1.0559867	0.10988021	0.28851579	0.93077985	-0.2877755	-0.012178863	0.84068916	0.18981297
